<?xml version="1.0" standalone="no"?>
<!DOCTYPE svg PUBLIC "-//W3C//DTD SVG 20010904//EN"
 "http://www.w3.org/TR/2001/REC-SVG-20010904/DTD/svg10.dtd">
<svg version="1.0" xmlns="http://www.w3.org/2000/svg"
 width="135.000000pt" height="23.000000pt" viewBox="0 0 135.000000 23.000000"
 preserveAspectRatio="xMidYMid meet">

<g transform="translate(0.000000,23.000000) scale(0.100000,-0.100000)"
fill="#000000" stroke="none">
<path d="M64 214 c-34 -16 -64 -61 -64 -94 0 -57 58 -120 110 -120 57 0 120
58 120 110 0 36 -28 85 -59 103 -36 21 -66 21 -107 1z m101 -49 c32 -31 32
-69 0 -100 -13 -14 -36 -25 -50 -25 -33 0 -75 42 -75 75 0 33 42 75 75 75 14
0 37 -11 50 -25z"/>
<path d="M420 165 c0 -8 7 -15 15 -15 8 0 15 7 15 15 0 8 -7 15 -15 15 -8 0
-15 -7 -15 -15z"/>
<path d="M280 105 l0 -65 38 0 c52 0 82 23 82 64 0 44 -26 66 -78 66 l-42 0 0
-65z m85 0 c0 -23 -5 -31 -22 -33 -20 -3 -23 1 -23 33 0 32 3 36 23 33 17 -2
22 -10 22 -33z"/>
<path d="M730 105 c0 -51 3 -65 15 -65 11 0 15 12 16 43 1 40 1 41 11 15 6
-17 17 -28 28 -28 11 0 22 11 28 28 10 26 10 25 11 -15 1 -36 4 -43 21 -43 18
0 20 7 20 65 0 63 -1 65 -26 65 -19 0 -28 -7 -35 -30 -6 -16 -14 -30 -18 -30
-4 0 -12 14 -18 30 -8 20 -18 30 -32 30 -19 0 -21 -6 -21 -65z"/>
<path d="M1070 105 c0 -51 3 -65 15 -65 10 0 15 10 15 28 l1 27 22 -27 c13
-16 28 -28 35 -28 16 0 15 6 -4 36 -16 23 -15 26 1 44 26 28 -2 27 -32 -2
l-23 -21 0 36 c0 26 -4 37 -15 37 -12 0 -15 -14 -15 -65z"/>
<path d="M1287 148 c-6 -18 4 -81 16 -95 11 -16 47 -17 47 -3 0 6 -7 13 -15
16 -8 4 -15 17 -15 30 0 15 6 24 15 24 8 0 15 5 15 10 0 6 -7 10 -15 10 -8 0
-15 5 -15 10 0 14 -27 12 -33 -2z"/>
<path d="M414 124 c3 -9 6 -31 6 -50 0 -24 5 -34 15 -34 11 0 15 12 15 50 0
44 -2 50 -21 50 -15 0 -19 -4 -15 -16z"/>
<path d="M470 89 c0 -36 4 -49 14 -49 9 0 16 12 18 32 2 22 9 34 21 36 14 3
17 -4 17 -32 0 -25 4 -36 15 -36 11 0 15 11 15 39 0 47 -13 59 -62 59 l-38 0
0 -49z"/>
<path d="M588 115 c-17 -38 3 -75 41 -75 16 0 35 7 42 16 12 15 10 16 -18 10
-18 -4 -34 -3 -38 3 -4 7 7 11 29 11 20 0 36 5 36 11 0 50 -71 69 -92 24z m57
-5 c3 -5 -3 -10 -15 -10 -12 0 -18 5 -15 10 3 6 10 10 15 10 5 0 12 -4 15 -10z"/>
<path d="M900 125 c0 -9 10 -16 28 -16 22 -1 23 -2 5 -6 -28 -5 -47 -29 -39
-48 4 -10 18 -14 46 -13 39 1 40 2 40 38 0 20 -5 41 -12 48 -18 18 -68 15 -68
-3z m50 -55 c0 -5 -7 -10 -15 -10 -8 0 -15 5 -15 10 0 6 7 10 15 10 8 0 15 -4
15 -10z"/>
<path d="M1000 90 c0 -38 4 -50 15 -50 10 0 15 10 15 30 0 18 6 33 15 36 8 4
15 12 15 20 0 17 -12 18 -28 2 -9 -9 -12 -9 -12 0 0 7 -4 12 -10 12 -5 0 -10
-22 -10 -50z"/>
<path d="M1184 115 c-15 -23 -15 -27 0 -50 19 -29 57 -33 77 -9 12 15 10 16
-19 10 -21 -5 -32 -4 -32 3 0 6 14 11 30 11 22 0 30 5 30 18 0 45 -60 57 -86
17z m51 -5 c3 -5 -1 -10 -9 -10 -9 0 -16 5 -16 10 0 6 4 10 9 10 6 0 13 -4 16
-10z"/>
</g>
</svg>
